# xmcd CD database file
#
# Track frame offsets:
#	150
#	17522
#	36118
#	53490
#
# Disc length: 961 seconds
#
# Revision: 1
# Processed by: cddbd v1.5.2PL0 Copyright (c) Steve Scherf et al.
# Submitted via: CDex 1.51
#
DISCID=2203bf04
DTITLE=Alan Jackson - Chart Toppers
DYEAR=2005
DGENRE=Karaoke
TTITLE0=That'd Be Alright
TTITLE1=Drive
TTITLE2=That'd Be Alright (vocal)
TTITLE3=Drive (Vocal)
EXTD=YEAR: 2005
EXTT0=
EXTT1=
EXTT2=
EXTT3=
PLAYORDER=
